<svg xmlns="http://www.w3.org/2000/svg" viewBox="0 0 24 24"><path fill="#25dac4" d="M21.6 12.2c0-.7 0-1.4-.2-2H12v3.9h5.4a4.6 4.6 0 0 1-2 3v2.4h3.2c1.9-1.7 3-4.3 3-7.3Z"/><path fill="#25dac4" d="M12 22c2.7 0 5-.9 6.6-2.5l-3.2-2.4c-.9.6-2 1-3.4 1-2.6 0-4.8-1.7-5.6-4.1H3.1v2.5A10 10 0 0 0 12 22Z"/><path fill="#25dac4" d="M6.4 14c-.2-.6-.3-1.3-.3-2s.1-1.4.3-2V7.5H3.1a10 10 0 0 0 0 9l3.3-2.5Z"/><path fill="#25dac4" d="M12 6c1.5 0 2.8.5 3.8 1.5l2.8-2.8C16.9 3 14.7 2 12 2A10 10 0 0 0 3.1 7.5L6.4 10C7.2 7.7 9.4 6 12 6Z"/></svg>
